<!DOCTYPE svg PUBLIC "-//W3C//DTD SVG 1.1//EN" "http://www.w3.org/Graphics/SVG/1.1/DTD/svg11.dtd">
<!-- Uploaded to: SVG Repo, www.svgrepo.com, Transformed by: SVG Repo Mixer Tools -->
<svg height="800px" width="800px" version="1.1" id="Layer_1" xmlns="http://www.w3.org/2000/svg" xmlns:xlink="http://www.w3.org/1999/xlink" viewBox="0 0 512 512" xml:space="preserve" fill="#75473c" stroke="#75473c">
<g id="SVGRepo_bgCarrier" stroke-width="0"/>
<g id="SVGRepo_tracerCarrier" stroke-linecap="round" stroke-linejoin="round"/>
<g id="SVGRepo_iconCarrier"> <circle style="fill:#a25726;" cx="256" cy="256" r="256"/> <path style="fill:#deaa96;" d="M257.607,511.979c117.02-0.721,215.409-79.946,245.164-187.671L302.327,124.364L198.496,234.122 l-32.137,19.58l75.276,74.557l-96.827,71.109L257.607,511.979z"/> <path style="fill:#e3d5bf;" d="M367.192,354.9c0-31.608-17.143-59.67-42.56-69.665l-40.836-16.06h-28.372v130.193h111.768V354.9z"/> <path style="fill:#e3d5bf;" d="M228.202,269.176l-40.836,16.06c-25.414,9.993-42.558,38.055-42.558,69.665v44.468h110.618V269.176 L228.202,269.176L228.202,269.176z"/> <polygon style="fill:#673d49;" points="242.209,399.369 251.402,312.889 260.598,312.889 269.791,399.369 "/> <g> <polygon style="fill:#673d49;" points="260.598,312.889 255.426,312.889 255.426,399.369 269.791,399.369 "/> <polygon style="fill:#673d49;" points="274.101,302.114 262.034,330.559 249.966,330.559 237.899,302.114 "/> </g> <polygon style="fill:#673d49;" points="274.101,302.114 255.426,302.114 255.426,330.559 262.034,330.559 "/> <polygon style="fill:#e3d5bf;" points="302.604,276.571 283.798,269.176 276.982,269.176 256,301.971 284.444,312.889 "/> <polygon style="fill:#e3d5bf;" points="209.398,276.571 227.556,312.889 256,301.971 234.298,269.176 228.202,269.176 "/> <path style="fill:#673c29;" d="M232.42,236.378h-3.505l-5.56-42.967h65.291l-5.561,42.967h-3.503V268.1 c30.53-1.245,66.06-14.398,66.06-14.398c-17.623-11.381-22.537-42.051-23.793-62.726c0.012-8.668-0.253-16.008-0.253-20.189 c0-36.226-29.367-65.593-65.593-65.593s-65.593,29.367-65.593,65.593c0,2.917-0.017,7.564,0.06,13.183 c-0.564,19.985-4.36,56.977-24.109,69.732c0,0,35.53,13.153,66.062,14.398v-31.722H232.42z"/> <path style="fill:#563a23;" d="M279.581,236.378V268.1c30.53-1.245,66.06-14.398,66.06-14.398 c-17.623-11.381-22.537-42.051-23.793-62.726c0.012-8.668-0.253-16.008-0.253-20.189c0-36.226-29.367-65.593-65.593-65.593 c-0.193,0-0.383,0.012-0.574,0.014v88.205h33.22l-5.561,42.967h-3.505V236.378z"/> <polygon style="fill:#FED8B2;" points="284.444,269.176 256,301.971 227.556,269.176 227.556,236.378 284.444,236.378 "/> <polygon style="fill:#EFC095;" points="255.426,236.378 255.426,301.309 256,301.971 284.444,269.176 284.444,236.378 "/> <path style="fill:#F4E3C3;" d="M306.379,193.412H204.878c-0.422,3.448-0.7,13.819-0.71,25.04 c11.323,26.807,30.308,50.724,51.829,50.724c21.382,0,40.257-23.611,51.605-50.205C307.481,207.584,306.99,197.067,306.379,193.412z "/> <path style="fill:#FED8B2;" d="M306.379,193.412h-50.952v75.743c0.19,0.003,0.379,0.019,0.569,0.019 c21.382,0,40.257-23.611,51.605-50.205C307.481,207.584,306.99,197.067,306.379,193.412z"/> </g>
</svg>